<svg xmlns="http://www.w3.org/2000/svg" xmlns:xlink="http://www.w3.org/1999/xlink" width="122" height="121" viewBox="0 0 122 121">
  <defs>
    <filter id="Ellipse_85" x="0" y="0" width="122" height="121" filterUnits="userSpaceOnUse">
      <feOffset dy="8" />
      <feGaussianBlur stdDeviation="6" result="blur"/>
      <feFlood flood-opacity="0.102"/>
      <feComposite operator="in" in2="blur"/>
      <feComposite in="SourceGraphic"/>
    </filter>
  </defs>
  <g id="Group_1117" data-name="Group 1117" transform="translate(-403 -957)">
    <g transform="matrix(1, 0, 0, 1, 403, 957)" filter="url(#Ellipse_85)">
      <ellipse id="Ellipse_85-2" data-name="Ellipse 85" cx="43" cy="42.5" rx="43" ry="42.5" transform="translate(18 10)" fill="#fff"/>
    </g>
    <path id="Icon_awesome-google" data-name="Icon awesome-google" d="M40.214,21.477c0,11.66-7.985,19.959-19.777,19.959a20.436,20.436,0,0,1,0-40.873,19.653,19.653,0,0,1,13.7,5.348l-5.562,5.348C21.3,4.238,7.771,9.512,7.771,21A12.8,12.8,0,0,0,20.436,33.9c8.092,0,11.125-5.8,11.6-8.809h-11.6V18.065H39.892A17.915,17.915,0,0,1,40.214,21.477Z" transform="translate(443.478 989.003)" fill="#ea245d"/>
  </g>
</svg>
