<svg xmlns="http://www.w3.org/2000/svg" width="39.885" height="40.598" viewBox="0 0 39.885 40.598">
  <g id="Group_998" data-name="Group 998" transform="translate(0.5 0.5)">
    <path id="Path_12" data-name="Path 12" d="M2237.121,765.051l-13.9-9.335a3.072,3.072,0,0,0-3.425,0l-13.462,9.04a9.129,9.129,0,0,0-4.047,7.591V789.6a3.213,3.213,0,0,0,6.425,0V772.347a2.715,2.715,0,0,1,1.2-2.258l10.9-7.322a1.232,1.232,0,0,1,1.378,0l11.345,7.618a2.716,2.716,0,0,1,1.2,2.258v15.147h-7.271a1.359,1.359,0,0,0-1.358,1.359v4.286a1.359,1.359,0,0,0,1.358,1.359h13.7v-22.15A9.13,9.13,0,0,0,2237.121,765.051Z" transform="translate(-2202.283 -755.194)" fill="#b26c08" stroke="#b26c08" stroke-width="1"/>
    <path id="Path_13" data-name="Path 13" d="M2310.268,883a9.114,9.114,0,0,0-13.124-7.84h-1.621a3.473,3.473,0,0,0-3.473,3.472V895.4a2.863,2.863,0,0,0,5.726,0v-2.145a1.068,1.068,0,0,1,1.3-1.049,9.114,9.114,0,0,0,11.193-9.21Zm-8.623,4.22a3.87,3.87,0,1,1,3.869-3.87A3.869,3.869,0,0,1,2301.645,887.217Z" transform="translate(-2281.683 -860.479)" fill="#b26c08" stroke="#b26c08" stroke-width="1"/>
  </g>
</svg>
