<svg id="Group_846" data-name="Group 846" xmlns="http://www.w3.org/2000/svg" width="110.683" height="112.713" viewBox="0 0 110.683 112.713">
  <path id="Path_12" data-name="Path 12" d="M2301.446,783.251l-39.574-26.572a8.742,8.742,0,0,0-9.748,0L2213.8,782.411a25.985,25.985,0,0,0-11.52,21.609v49.1a9.144,9.144,0,0,0,18.289,0v-49.1a7.727,7.727,0,0,1,3.426-6.426l31.039-20.842a3.507,3.507,0,0,1,3.923,0l32.291,21.682a7.731,7.731,0,0,1,3.427,6.427v43.114h-20.7a3.868,3.868,0,0,0-3.866,3.867v12.2a3.867,3.867,0,0,0,3.866,3.867h38.984V804.86A25.988,25.988,0,0,0,2301.446,783.251Z" transform="translate(-2202.283 -755.194)" fill="#b26c08"/>
  <path id="Path_13" data-name="Path 13" d="M2343.906,899.194a25.941,25.941,0,0,0-37.356-22.315h-4.615a9.884,9.884,0,0,0-9.885,9.884V934.5a8.149,8.149,0,0,0,16.3,0V928.4a3.04,3.04,0,0,1,3.7-2.987,25.943,25.943,0,0,0,31.861-26.216Zm-24.544,12.011a11.014,11.014,0,1,1,11.013-11.014A11.012,11.012,0,0,1,2319.362,911.205Z" transform="translate(-2262.542 -835.098)" fill="#b26c08"/>
</svg>
